<svg xmlns="http://www.w3.org/2000/svg" viewBox="0 0 800 800" width="800" height="800" role="img">
  <rect width="800" height="800" fill="#e6ddd3"/>
  <g fill="#b7a99a" opacity="0.9">
    <path d="M170 430 C 250 330, 420 300, 610 348 C 618 350, 620 362, 612 366 C 430 350, 268 380, 196 452 C 186 462, 162 444, 170 430 Z"/>
    <path d="M186 470 C 268 400, 424 382, 596 408 C 604 409, 606 420, 598 422 C 432 412, 288 428, 208 486 C 198 494, 178 478, 186 470 Z" opacity="0.55"/>
  </g>
  <g fill="#b7a99a" opacity="0.35">
    <circle cx="400" cy="600" r="3"/>
    <circle cx="430" cy="600" r="3"/>
    <circle cx="370" cy="600" r="3"/>
  </g>
  <text x="400" y="690" text-anchor="middle" font-family="Georgia, 'Times New Roman', serif"
        font-size="26" letter-spacing="6" fill="#b7a99a">JC BEAUTY</text>
</svg>
